<svg xmlns="http://www.w3.org/2000/svg" width="32" height="32" id="optimization"><g color="#000"><path fill="#4bbfeb" d="M23.5 1023.362v1.12a4.5 4.5 0 0 0-1.395.572l-.787-.788-1.414 1.415.79.789a4.5 4.5 0 0 0-.577 1.392H19v2h1.12a4.5 4.5 0 0 0 .571 1.395l-.787.787 1.414 1.414.79-.79a4.5 4.5 0 0 0 1.392.577v1.117h2v-1.119a4.5 4.5 0 0 0 1.395-.572l.787.787 1.414-1.414-.79-.79a4.5 4.5 0 0 0 .577-1.392H30v-2h-1.12a4.5 4.5 0 0 0-.571-1.394l.787-.787-1.414-1.415-.79.79a4.5 4.5 0 0 0-1.392-.577v-1.117zm1 3.5c1.099 0 2 .902 2 2 0 1.099-.901 2-2 2s-2-.901-2-2c0-1.098.901-2 2-2z" overflow="visible" style="isolation:auto;mix-blend-mode:normal" transform="translate(0 -1020.362)"></path><path style="line-height:normal;text-indent:0;text-align:start;text-decoration-line:none;text-decoration-style:solid;text-decoration-color:#000;text-transform:none;block-progression:tb;isolation:auto;mix-blend-mode:normal" d="M24.5 1026.861c-1.099 0-2 .902-2 2 0 1.099.901 2 2 2s2-.901 2-2c0-1.098-.901-2-2-2zm0 1c.558 0 1 .442 1 1s-.442 1-1 1-1-.442-1-1 .442-1 1-1zm-12.637 2.5a.5.5 0 0 0-.5.5v1.504a7.837 7.837 0 0 0-1.658.682l-1.059-1.059a.5.5 0 0 0-.707 0l-2.312 2.315a.5.5 0 0 0 0 .707l1.06 1.06a7.836 7.836 0 0 0-.687 1.657H4.5a.5.5 0 0 0-.5.5v3.271a.5.5 0 0 0 .5.5h1.504c.163.578.391 1.132.682 1.658l-1.059 1.059a.5.5 0 0 0 0 .707l2.312 2.314a.5.5 0 0 0 .707 0l1.061-1.06a7.83 7.83 0 0 0 1.656.685v1.5a.5.5 0 0 0 .5.5h3.274a.5.5 0 0 0 .5-.5v-1.502a7.837 7.837 0 0 0 1.658-.681l1.059 1.058a.5.5 0 0 0 .707 0l2.312-2.314a.5.5 0 0 0 0-.707l-1.06-1.06a7.836 7.836 0 0 0 .687-1.657h1.5a.5.5 0 0 0 .5-.5v-3.271a.5.5 0 0 0-.5-.5h-1.504a7.837 7.837 0 0 0-.682-1.659l1.059-1.058a.5.5 0 0 0 0-.707l-2.312-2.315a.5.5 0 0 0-.707 0l-1.061 1.06a7.836 7.836 0 0 0-1.656-.685v-1.502a.5.5 0 0 0-.5-.5h-3.274zm.5 1h2.274v1.328a.5.5 0 0 0 .388.489 6.86 6.86 0 0 1 2.123.879.5.5 0 0 0 .622-.07l.937-.938 1.605 1.607-.933.934a.5.5 0 0 0-.07.62c.408.654.703 1.373.873 2.126a.5.5 0 0 0 .486.39H22v2.272h-1.328a.5.5 0 0 0-.488.389 6.869 6.869 0 0 1-.88 2.125.5.5 0 0 0 .071.62l.938.937-1.606 1.607-.936-.935a.5.5 0 0 0-.617-.07 6.864 6.864 0 0 1-2.127.873.5.5 0 0 0-.39.488v1.33h-2.274v-1.328a.5.5 0 0 0-.388-.486 6.858 6.858 0 0 1-2.123-.88.5.5 0 0 0-.622.07l-.937.938-1.605-1.607.933-.934a.5.5 0 0 0 .07-.62 6.863 6.863 0 0 1-.873-2.126.5.5 0 0 0-.486-.39H5v-2.272h1.328a.5.5 0 0 0 .488-.389 6.869 6.869 0 0 1 .88-2.125.5.5 0 0 0-.071-.62l-.938-.937 1.606-1.607.936.935a.5.5 0 0 0 .617.07 6.866 6.866 0 0 1 2.127-.873.5.5 0 0 0 .39-.488v-1.332z" font-family="sans-serif" font-weight="400" overflow="visible" transform="translate(0 -1020.362)"></path><path fill="#f8b84e" stroke="#000" stroke-linecap="round" stroke-linejoin="round" d="M13.5 1037.362a2.508 2.508 0 0 0-2.5 2.5 2.51 2.51 0 0 0 2.5 2.5 2.51 2.51 0 0 0 2.5-2.5c0-1.375-1.126-2.5-2.5-2.5z" font-family="sans-serif" font-weight="400" overflow="visible" style="line-height:normal;text-indent:0;text-align:start;text-decoration-line:none;text-decoration-style:solid;text-decoration-color:#000;text-transform:none;block-progression:tb;isolation:auto;mix-blend-mode:normal" transform="translate(0 -1020.362)"></path></g></svg>